<?xml version="1.0" encoding="UTF-8"?>
<svg xmlns="http://www.w3.org/2000/svg" height="24" viewBox="0 0 24 24" width="24">
  <path d="M0 0h24v24H0V0z" fill="none"/>
  <path d="M5 5v14h14V5H5zm4 12h-2v-2h2v2zm0-4h-2v-2h2v2zm0-4h-2V7h2v2zm8 8h-6v-2h6v2zm0-4h-6v-2h6v2zm0-4h-6V7h6v2z" opacity=".3" fill="#007bff"/>
  <path d="M19 3H5c-1.11 0-2 .9-2 2v14c0 1.1.89 2 2 2h14c1.1 0 2-.9 2-2V5c0-1.1-.9-2-2-2zm0 16H5V5h14v14zm-8-2h2v-2h-2v2zm0-4h2v-2h-2v2zm0-4h2V7h-2v2zm-4 8h2v-2H7v2zm0-4h2v-2H7v2zm0-4h2V7H7v2zm8 8h2v-2h-2v2zm0-4h2v-2h-2v2zm0-4h2V7h-2v2z" fill="#007bff"/>
</svg>
